<?xml version="1.0" encoding="utf-8"?>
<!-- Generator: Adobe Illustrator 18.0.0, SVG Export Plug-In . SVG Version: 6.00 Build 0)  -->
<!DOCTYPE svg PUBLIC "-//W3C//DTD SVG 1.1//EN" "http://www.w3.org/Graphics/SVG/1.1/DTD/svg11.dtd">
<svg version="1.1" id="Layer_1" xmlns="http://www.w3.org/2000/svg" xmlns:xlink="http://www.w3.org/1999/xlink" x="0px" y="0px"
	 width="22.3px" height="23.3px" viewBox="0 0 22.3 23.3" enable-background="new 0 0 22.3 23.3" xml:space="preserve">
<path id="Path_655" d="M17.9,4c0.1-0.5,0.7-0.8,0.6-1.3C18,1.6,17,0.7,15.9,0.1c-3.1-0.4-4.1,0.9-4.6,1.6c-0.5,0.7-1.3,3.9,0.1,5.9
	c1.7,2.4,2,6.5,2.1,5.7c0.1-0.8,1-3.7,1.1-4.3s-0.3-3.3,0.5-4.4C16.4,3,17.2,4.8,17,5.1c-1.5,1.5-3.5,9.8-3.6,10.3s-1.2,1.8-0.9,1.7
	c1.7-0.4,1.3-1.2,1.4-1.5s3.3-6.7,3.6-6.5c1.5,0.4,1.9,2.5,1.7,3.1s-2.1,1-2.2,2.3c-0.3,5.2-3.8,7.5-6.9,7.5s-6.6-1.8-7.8-4.6
	c-1.1-2.5-0.8-4-0.6-4.7c0.3-0.7,3.9,0,4.4-0.2c1.3-0.8,2.8-1.1,4.3-1.1c-1.7-1.7-4.1-1.5-6.1-1.3c0.4-0.9,0.6-1.8,0.6-2.7
	C4.8,6.4,5,5.2,5.5,4.3C2.3,5.6,0.1,8.7,0,12.1c-0.1,6,4.7,11,10.8,11.1c0.1,0,0.2,0,0.4,0c6.1,0,11.1-5,11.1-11.1
	c0,0,0-4.7-2.3-6.7C18.8,5.2,17.8,4.4,17.9,4z"/>
</svg>
